<svg width="40" height="40" viewBox="0 0 40 40" fill="none" xmlns="http://www.w3.org/2000/svg">
<rect width="40" height="40" rx="4" fill="black"/>
<g clip-path="url(#clip0_179_10309)">
<path d="M14.4402 18.7409C14.4402 21.3474 12.327 23.4606 9.72052 23.4606C7.11407 23.4606 5 21.3483 5 18.7409C5 18.2717 5.06868 17.8186 5.19713 17.3904H7.38345C7.15242 17.7865 7.02219 18.2468 7.02219 18.7374C7.02219 20.2279 8.23086 21.4357 9.72052 21.4357C11.2102 21.4357 12.418 20.227 12.418 18.7374C12.418 18.2468 12.2868 17.7865 12.0567 17.3904H14.2439C14.3724 17.8195 14.441 18.2726 14.441 18.7418L14.4402 18.7409ZM5 12V14.0231H11.5795L8.21124 17.3904H11.0728L14.4402 14.0231V12H5ZM25.9025 18.7409C25.9025 21.3474 28.0157 23.4606 30.6221 23.4606C33.2286 23.4606 35.3418 21.3474 35.3418 18.7409C35.3418 18.2717 35.2731 17.8186 35.1446 17.3895H32.9583C33.1893 17.7856 33.3196 18.2459 33.3196 18.7365C33.3196 20.227 32.1109 21.4348 30.6212 21.4348C29.1316 21.4348 27.9238 20.2261 27.9238 18.7365C27.9238 18.2459 28.0549 17.7856 28.2851 17.3895H26.0978C25.9694 17.8186 25.9007 18.2717 25.9007 18.7409H25.9025ZM25.9025 12V14.0231L29.2698 17.3904H32.1314L28.7632 14.0231H35.3426V12H25.9025ZM24.6956 17.3967H22.5057C22.7367 17.7927 22.8688 18.2548 22.8688 18.7454C22.8688 18.9773 22.8393 19.2039 22.784 19.4197C22.4843 20.5838 21.4291 21.4428 20.1722 21.4428C18.9154 21.4428 17.8592 20.5838 17.5604 19.4197C17.5051 19.2039 17.4757 18.9773 17.4757 18.7454C17.4757 18.2548 17.6077 17.7936 17.8387 17.3967C17.9475 17.204 18.0831 17.0274 18.2366 16.8695L23.1034 12H20.2418L16.754 15.4878C16.2474 16.0203 15.8629 16.6715 15.647 17.3958C15.5204 17.823 15.4517 18.2762 15.4517 18.7445C15.4517 18.7944 15.4535 18.8426 15.4544 18.8917C15.4597 19.0701 15.4749 19.2467 15.499 19.4189C15.6051 20.1637 15.8861 20.8523 16.2991 21.4419C17.151 22.6649 18.5684 23.465 20.1722 23.465C21.7761 23.465 23.1926 22.6649 24.0453 21.4419C24.4583 20.8523 24.7384 20.1637 24.8455 19.4189C24.8767 19.1994 24.8927 18.9737 24.8927 18.7445C24.8927 18.2762 24.8241 17.823 24.6974 17.3958L24.6956 17.3967ZM8.13453 27.0643C8.13453 27.5263 7.77594 28 7.03111 28C6.17567 28 5.88131 27.4452 5.84652 27.1223L6.50482 26.9778C6.52266 27.2025 6.68947 27.4113 7.02487 27.4113C7.27909 27.4113 7.4004 27.2784 7.4004 27.1276C7.4004 27.0009 7.31388 26.8966 7.09444 26.8502L6.71891 26.7637C6.16943 26.6424 5.92145 26.3132 5.92145 25.9145C5.92145 25.406 6.37191 24.9841 6.98472 24.9841C7.79378 24.9841 8.06495 25.4988 8.09974 25.8048L7.45838 25.9493C7.43519 25.7816 7.31388 25.5675 6.99008 25.5675C6.78848 25.5675 6.62614 25.6888 6.62614 25.8511C6.62614 25.9894 6.7305 26.0759 6.8866 26.1054L7.29068 26.1919C7.85087 26.307 8.13453 26.6486 8.13453 27.0643ZM12.1584 27.2953C11.765 27.2953 11.4305 27.0063 11.4305 26.4925C11.4305 25.9787 11.765 25.6897 12.1584 25.6897C12.4635 25.6897 12.6499 25.8467 12.7471 26.0197L13.4625 25.8636C13.3091 25.4176 12.872 24.985 12.1584 24.985C11.3199 24.985 10.6616 25.6201 10.6616 26.4925C10.6616 27.3649 11.3199 28 12.1584 28C12.872 28 13.3091 27.5674 13.4625 27.1214L12.7471 26.9653C12.6499 27.1383 12.4635 27.2953 12.1584 27.2953ZM19.373 26.4925C19.373 27.3649 18.7316 28 17.8824 28C17.0332 28 16.3919 27.3649 16.3919 26.4925C16.3919 25.6201 17.0332 24.9841 17.8824 24.9841C18.7316 24.9841 19.373 25.6139 19.373 26.4925ZM18.605 26.4925C18.605 25.9546 18.258 25.6834 17.8824 25.6834C17.5069 25.6834 17.1608 25.9546 17.1608 26.4925C17.1608 27.0304 17.5069 27.3016 17.8824 27.3016C18.258 27.3016 18.605 27.0295 18.605 26.4925ZM23.9543 24.9957V25.77C23.8669 25.753 23.792 25.7468 23.7224 25.7468C23.3299 25.7468 22.9892 26.0242 22.9892 26.637V28H22.2203V24.9841H22.966V25.4292C23.139 25.0537 23.5324 24.9841 23.775 24.9841C23.8384 24.9841 23.8964 24.9904 23.9543 24.9957ZM29.6213 26.4577V26.4657C29.6204 26.5728 29.6097 26.6825 29.6097 26.6941H27.5759C27.5929 27.0696 27.9104 27.3417 28.2922 27.3417C28.6178 27.3417 28.8096 27.1936 28.9104 26.9769L29.5731 27.1214C29.4215 27.6022 28.9746 28 28.2859 28C27.5063 28 26.8186 27.4398 26.8186 26.4809C26.8186 25.5737 27.4885 24.9841 28.2173 24.9841C29.095 24.9841 29.6213 25.5443 29.6213 26.4577ZM28.864 26.1687C28.8524 25.885 28.6677 25.6085 28.2289 25.6085C27.8301 25.6085 27.6107 25.9082 27.5929 26.1687H28.864ZM34.4221 27.0643C34.4221 27.5263 34.0635 28 33.3178 28C32.4632 28 32.168 27.4452 32.1341 27.1223L32.7924 26.9778C32.8093 27.2025 32.977 27.4113 33.3124 27.4113C33.5667 27.4113 33.688 27.2784 33.688 27.1276C33.688 27.0009 33.6014 26.8966 33.382 26.8502L33.0065 26.7637C32.457 26.6424 32.209 26.3132 32.209 25.9145C32.209 25.406 32.6595 24.9841 33.2723 24.9841C34.0813 24.9841 34.3525 25.4988 34.3873 25.8048L33.7459 25.9493C33.7228 25.7816 33.6014 25.5675 33.2776 25.5675C33.0752 25.5675 32.9137 25.6888 32.9137 25.8511C32.9137 25.9894 33.0181 26.0759 33.1742 26.1054L33.5782 26.1919C34.1384 26.307 34.4221 26.6486 34.4221 27.0643Z" fill="white"/>
</g>
<defs>
<clipPath id="clip0_179_10309">
<rect width="30.3426" height="16" fill="white" transform="translate(5 12)"/>
</clipPath>
</defs>
</svg>
